<svg width="87" height="23" viewBox="0 0 87 23" fill="none" xmlns="http://www.w3.org/2000/svg">
<g clip-path="url(#clip0_0:241)">
<path d="M26.6725 9.02841C26.6725 16.739 20.6963 22.9998 13.3362 22.9998C5.97614 22.9998 0 16.739 0 9.02841H2.32755C2.32755 15.421 7.23427 20.5614 13.3362 20.5614C19.4382 20.5614 24.3449 15.421 24.3449 9.02841H26.6725Z" fill="#232323"/>
<path d="M13.2749 0C8.49397 0 4.59375 4.08596 4.59375 9.16046C4.59375 14.235 8.49397 18.3209 13.3378 18.3209C18.1816 18.3209 22.0818 14.235 22.0818 9.16046C22.0189 4.08596 18.1187 0 13.2749 0Z" fill="#232323"/>
<path d="M13.2749 0C8.49397 0 4.59375 4.08596 4.59375 9.16046C4.59375 14.235 8.49397 18.3209 13.3378 18.3209C18.1816 18.3209 22.0818 14.235 22.0818 9.16046C22.0189 4.08596 18.1187 0 13.2749 0Z" fill="#232323"/>
<path d="M46.3603 1.38419V20.2982H44.9135V8.36986L34.9742 8.36986V18.7825L44.9135 18.7825L43.4666 20.2982H33.5273V6.8541L44.9135 6.8541V1.38419L46.3603 1.38419Z" fill="#232323"/>
<path d="M55.1034 1.2524C56.1099 1.2524 57.0535 1.51601 57.7454 2.04323L57.0535 3.8885C56.5502 3.49308 55.9212 3.22947 55.2292 3.22947C53.8452 3.22947 53.1533 4.0203 53.1533 5.60197V6.78821L56.9277 6.78821V8.83119H53.2162V20.3641H50.8886V5.60197C50.8257 2.96586 52.3355 1.2524 55.1034 1.2524ZM60.5763 2.63635C60.5763 1.71371 61.2682 1.05469 62.1489 1.05469C63.0296 1.05469 63.7216 1.71371 63.7216 2.63635C63.7216 3.55899 63.0925 4.28391 62.1489 4.28391C61.2682 4.21801 60.5763 3.55899 60.5763 2.63635ZM61.0166 6.78821H63.3441V20.2982L61.0166 20.2982V6.78821Z" fill="#232323"/>
<path d="M67.8086 16.3446V1.38477L70.1361 1.38477V16.1469C70.1361 17.5968 70.7652 18.3876 72.1491 18.3876C72.5895 18.3876 73.0298 18.2558 73.2815 18.124L73.4073 20.167C72.8411 20.3647 72.275 20.4965 71.7088 20.4965C69.1925 20.4965 67.8086 18.9807 67.8086 16.3446Z" fill="#232323"/>
<path d="M84.921 16.7395L86.1791 18.3211C85.0468 19.771 83.2854 20.4959 81.1466 20.4959C76.9948 20.4959 74.2269 17.5962 74.2269 13.5762C74.2269 9.5561 76.9319 6.72229 80.7063 6.72229C84.229 6.72229 86.9969 9.29249 87.0598 13.3785L76.7431 15.4214C77.3722 17.2667 79.0078 18.3211 81.1466 18.3211C82.7193 18.3211 83.9774 17.7939 84.921 16.7395ZM76.4286 13.4444V13.708L84.6694 12.0604C84.229 10.1492 82.7193 8.76527 80.6433 8.76527C78.19 8.76527 76.4286 10.6105 76.4286 13.4444Z" fill="#232323"/>
</g>
<defs>
<clipPath id="clip0_0:241">
<rect width="87" height="23" fill="white"/>
</clipPath>
</defs>
</svg>
